<mxfile host="app.diagrams.net" modified="2024-04-10T13:09:54.277Z" agent="Mozilla/5.0 (Windows NT 10.0; Win64; x64) AppleWebKit/537.36 (KHTML, like Gecko) Chrome/123.0.0.0 Safari/537.36" etag="wC-HZrdeGajJmI1uVqDr" version="24.2.3" type="github">
  <diagram id="C5RBs43oDa-KdzZeNtuy" name="Page-1">
    <mxGraphModel dx="490" dy="513" grid="1" gridSize="10" guides="1" tooltips="1" connect="1" arrows="1" fold="1" page="1" pageScale="1" pageWidth="827" pageHeight="1169" math="0" shadow="0">
      <root>
        <mxCell id="WIyWlLk6GJQsqaUBKTNV-0" />
        <mxCell id="WIyWlLk6GJQsqaUBKTNV-1" parent="WIyWlLk6GJQsqaUBKTNV-0" />
        <mxCell id="UbxMJG0Ne-6nqF-24o97-23" style="edgeStyle=orthogonalEdgeStyle;rounded=0;orthogonalLoop=1;jettySize=auto;html=1;entryX=0.5;entryY=0;entryDx=0;entryDy=0;" edge="1" parent="WIyWlLk6GJQsqaUBKTNV-1" source="WIyWlLk6GJQsqaUBKTNV-3" target="UbxMJG0Ne-6nqF-24o97-22">
          <mxGeometry relative="1" as="geometry" />
        </mxCell>
        <mxCell id="WIyWlLk6GJQsqaUBKTNV-3" value="&lt;span class=&quot;OYPEnA text-decoration-none text-strikethrough-none&quot;&gt;MetroTicket -&amp;nbsp;&lt;/span&gt;Bus Ticketing System" style="rounded=1;whiteSpace=wrap;html=1;fontSize=12;glass=0;strokeWidth=1;shadow=0;arcSize=50;" parent="WIyWlLk6GJQsqaUBKTNV-1" vertex="1">
          <mxGeometry x="34" y="20" width="236" height="60" as="geometry" />
        </mxCell>
        <mxCell id="UbxMJG0Ne-6nqF-24o97-2" style="edgeStyle=orthogonalEdgeStyle;rounded=0;orthogonalLoop=1;jettySize=auto;html=1;entryX=0.5;entryY=0;entryDx=0;entryDy=0;" edge="1" parent="WIyWlLk6GJQsqaUBKTNV-1" source="WWSJBBc85hv_7WORX7Hr-0" target="UbxMJG0Ne-6nqF-24o97-1">
          <mxGeometry relative="1" as="geometry" />
        </mxCell>
        <mxCell id="WWSJBBc85hv_7WORX7Hr-0" value="Display &quot;Login Interface&quot;" style="shape=parallelogram;perimeter=parallelogramPerimeter;whiteSpace=wrap;html=1;fixedSize=1;" parent="WIyWlLk6GJQsqaUBKTNV-1" vertex="1">
          <mxGeometry x="62" y="430" width="180" height="60" as="geometry" />
        </mxCell>
        <mxCell id="WWSJBBc85hv_7WORX7Hr-4" value="Exit Program" style="rounded=1;whiteSpace=wrap;html=1;fontSize=12;glass=0;strokeWidth=1;shadow=0;arcSize=50;" parent="WIyWlLk6GJQsqaUBKTNV-1" vertex="1">
          <mxGeometry x="50" y="1010" width="204" height="40" as="geometry" />
        </mxCell>
        <mxCell id="UbxMJG0Ne-6nqF-24o97-10" style="edgeStyle=orthogonalEdgeStyle;rounded=0;orthogonalLoop=1;jettySize=auto;html=1;entryX=0;entryY=0.5;entryDx=0;entryDy=0;" edge="1" parent="WIyWlLk6GJQsqaUBKTNV-1" source="UbxMJG0Ne-6nqF-24o97-0" target="UbxMJG0Ne-6nqF-24o97-13">
          <mxGeometry relative="1" as="geometry">
            <mxPoint x="287.9999999999998" y="770.05" as="targetPoint" />
            <Array as="points">
              <mxPoint x="152" y="820" />
            </Array>
          </mxGeometry>
        </mxCell>
        <mxCell id="UbxMJG0Ne-6nqF-24o97-39" style="edgeStyle=orthogonalEdgeStyle;rounded=0;orthogonalLoop=1;jettySize=auto;html=1;entryX=0.5;entryY=0;entryDx=0;entryDy=0;" edge="1" parent="WIyWlLk6GJQsqaUBKTNV-1" source="UbxMJG0Ne-6nqF-24o97-0" target="WWSJBBc85hv_7WORX7Hr-4">
          <mxGeometry relative="1" as="geometry" />
        </mxCell>
        <mxCell id="UbxMJG0Ne-6nqF-24o97-0" value="Display Main Page" style="shape=parallelogram;perimeter=parallelogramPerimeter;whiteSpace=wrap;html=1;fixedSize=1;" vertex="1" parent="WIyWlLk6GJQsqaUBKTNV-1">
          <mxGeometry x="62" y="700" width="180" height="60" as="geometry" />
        </mxCell>
        <mxCell id="UbxMJG0Ne-6nqF-24o97-3" style="edgeStyle=orthogonalEdgeStyle;rounded=0;orthogonalLoop=1;jettySize=auto;html=1;entryX=0.5;entryY=0;entryDx=0;entryDy=0;" edge="1" parent="WIyWlLk6GJQsqaUBKTNV-1" source="UbxMJG0Ne-6nqF-24o97-1" target="UbxMJG0Ne-6nqF-24o97-0">
          <mxGeometry relative="1" as="geometry" />
        </mxCell>
        <mxCell id="UbxMJG0Ne-6nqF-24o97-5" value="True" style="edgeLabel;html=1;align=center;verticalAlign=middle;resizable=0;points=[];" vertex="1" connectable="0" parent="UbxMJG0Ne-6nqF-24o97-3">
          <mxGeometry x="-0.2177" y="-1" relative="1" as="geometry">
            <mxPoint as="offset" />
          </mxGeometry>
        </mxCell>
        <mxCell id="UbxMJG0Ne-6nqF-24o97-4" style="edgeStyle=orthogonalEdgeStyle;rounded=0;orthogonalLoop=1;jettySize=auto;html=1;entryX=1;entryY=0.5;entryDx=0;entryDy=0;exitX=1;exitY=0.5;exitDx=0;exitDy=0;" edge="1" parent="WIyWlLk6GJQsqaUBKTNV-1" source="UbxMJG0Ne-6nqF-24o97-1" target="WWSJBBc85hv_7WORX7Hr-0">
          <mxGeometry relative="1" as="geometry">
            <mxPoint x="317.9999999999998" y="400.05" as="targetPoint" />
            <Array as="points">
              <mxPoint x="328" y="585" />
              <mxPoint x="328" y="460" />
            </Array>
          </mxGeometry>
        </mxCell>
        <mxCell id="UbxMJG0Ne-6nqF-24o97-6" value="False" style="edgeLabel;html=1;align=center;verticalAlign=middle;resizable=0;points=[];" vertex="1" connectable="0" parent="UbxMJG0Ne-6nqF-24o97-4">
          <mxGeometry x="-0.6775" y="1" relative="1" as="geometry">
            <mxPoint x="-15" y="1" as="offset" />
          </mxGeometry>
        </mxCell>
        <mxCell id="UbxMJG0Ne-6nqF-24o97-1" value="if username and password is correct&amp;nbsp;" style="rhombus;whiteSpace=wrap;html=1;" vertex="1" parent="WIyWlLk6GJQsqaUBKTNV-1">
          <mxGeometry x="58" y="520" width="188" height="130" as="geometry" />
        </mxCell>
        <mxCell id="UbxMJG0Ne-6nqF-24o97-15" style="edgeStyle=orthogonalEdgeStyle;rounded=0;orthogonalLoop=1;jettySize=auto;html=1;" edge="1" parent="WIyWlLk6GJQsqaUBKTNV-1" source="UbxMJG0Ne-6nqF-24o97-13" target="UbxMJG0Ne-6nqF-24o97-14">
          <mxGeometry relative="1" as="geometry" />
        </mxCell>
        <mxCell id="UbxMJG0Ne-6nqF-24o97-13" value="Display Ticketing Page" style="shape=parallelogram;perimeter=parallelogramPerimeter;whiteSpace=wrap;html=1;fixedSize=1;" vertex="1" parent="WIyWlLk6GJQsqaUBKTNV-1">
          <mxGeometry x="200" y="790" width="160" height="60" as="geometry" />
        </mxCell>
        <mxCell id="UbxMJG0Ne-6nqF-24o97-19" style="edgeStyle=orthogonalEdgeStyle;rounded=0;orthogonalLoop=1;jettySize=auto;html=1;entryX=0;entryY=0.5;entryDx=0;entryDy=0;" edge="1" parent="WIyWlLk6GJQsqaUBKTNV-1" source="UbxMJG0Ne-6nqF-24o97-14" target="UbxMJG0Ne-6nqF-24o97-18">
          <mxGeometry relative="1" as="geometry" />
        </mxCell>
        <mxCell id="UbxMJG0Ne-6nqF-24o97-14" value="Display Preview and Payment Page" style="shape=parallelogram;perimeter=parallelogramPerimeter;whiteSpace=wrap;html=1;fixedSize=1;" vertex="1" parent="WIyWlLk6GJQsqaUBKTNV-1">
          <mxGeometry x="420" y="790" width="160" height="60" as="geometry" />
        </mxCell>
        <mxCell id="UbxMJG0Ne-6nqF-24o97-21" style="edgeStyle=orthogonalEdgeStyle;rounded=0;orthogonalLoop=1;jettySize=auto;html=1;entryX=0.5;entryY=1;entryDx=0;entryDy=0;" edge="1" parent="WIyWlLk6GJQsqaUBKTNV-1" source="UbxMJG0Ne-6nqF-24o97-18" target="UbxMJG0Ne-6nqF-24o97-13">
          <mxGeometry relative="1" as="geometry">
            <Array as="points">
              <mxPoint x="715" y="900" />
              <mxPoint x="280" y="900" />
            </Array>
          </mxGeometry>
        </mxCell>
        <mxCell id="UbxMJG0Ne-6nqF-24o97-18" value="Display Successfully Paid" style="shape=parallelogram;perimeter=parallelogramPerimeter;whiteSpace=wrap;html=1;fixedSize=1;" vertex="1" parent="WIyWlLk6GJQsqaUBKTNV-1">
          <mxGeometry x="620" y="790" width="190" height="60" as="geometry" />
        </mxCell>
        <mxCell id="UbxMJG0Ne-6nqF-24o97-42" value="" style="edgeStyle=orthogonalEdgeStyle;rounded=0;orthogonalLoop=1;jettySize=auto;html=1;" edge="1" parent="WIyWlLk6GJQsqaUBKTNV-1" source="UbxMJG0Ne-6nqF-24o97-22" target="UbxMJG0Ne-6nqF-24o97-41">
          <mxGeometry relative="1" as="geometry" />
        </mxCell>
        <mxCell id="UbxMJG0Ne-6nqF-24o97-22" value="Display &quot;Splash Screen&quot;" style="shape=parallelogram;perimeter=parallelogramPerimeter;whiteSpace=wrap;html=1;fixedSize=1;" vertex="1" parent="WIyWlLk6GJQsqaUBKTNV-1">
          <mxGeometry x="62" y="130" width="180" height="60" as="geometry" />
        </mxCell>
        <mxCell id="UbxMJG0Ne-6nqF-24o97-43" style="edgeStyle=orthogonalEdgeStyle;rounded=0;orthogonalLoop=1;jettySize=auto;html=1;entryX=0.5;entryY=0;entryDx=0;entryDy=0;" edge="1" parent="WIyWlLk6GJQsqaUBKTNV-1" source="UbxMJG0Ne-6nqF-24o97-41" target="WWSJBBc85hv_7WORX7Hr-0">
          <mxGeometry relative="1" as="geometry" />
        </mxCell>
        <mxCell id="UbxMJG0Ne-6nqF-24o97-46" value="True" style="edgeLabel;html=1;align=center;verticalAlign=middle;resizable=0;points=[];" vertex="1" connectable="0" parent="UbxMJG0Ne-6nqF-24o97-43">
          <mxGeometry x="-0.3365" relative="1" as="geometry">
            <mxPoint as="offset" />
          </mxGeometry>
        </mxCell>
        <mxCell id="UbxMJG0Ne-6nqF-24o97-44" style="edgeStyle=orthogonalEdgeStyle;rounded=0;orthogonalLoop=1;jettySize=auto;html=1;entryX=1;entryY=0.5;entryDx=0;entryDy=0;" edge="1" parent="WIyWlLk6GJQsqaUBKTNV-1" source="UbxMJG0Ne-6nqF-24o97-41" target="UbxMJG0Ne-6nqF-24o97-22">
          <mxGeometry relative="1" as="geometry">
            <mxPoint x="339.9999999999999" y="160" as="targetPoint" />
            <Array as="points">
              <mxPoint x="320" y="290" />
              <mxPoint x="320" y="160" />
            </Array>
          </mxGeometry>
        </mxCell>
        <mxCell id="UbxMJG0Ne-6nqF-24o97-45" value="False" style="edgeLabel;html=1;align=center;verticalAlign=middle;resizable=0;points=[];" vertex="1" connectable="0" parent="UbxMJG0Ne-6nqF-24o97-44">
          <mxGeometry x="-0.7538" relative="1" as="geometry">
            <mxPoint x="-8" y="-1" as="offset" />
          </mxGeometry>
        </mxCell>
        <mxCell id="UbxMJG0Ne-6nqF-24o97-41" value="If Mouse Clicked or Key Pressed" style="rhombus;whiteSpace=wrap;html=1;" vertex="1" parent="WIyWlLk6GJQsqaUBKTNV-1">
          <mxGeometry x="90" y="230" width="124" height="120" as="geometry" />
        </mxCell>
      </root>
    </mxGraphModel>
  </diagram>
</mxfile>
